<svg width="95.99999999999999" height="95.99999999999999" xmlns="http://www.w3.org/2000/svg">
 <title/>

 <g>
  <title>background</title>
  <rect fill="none" id="canvas_background" height="402" width="582" y="-1" x="-1"/>
 </g>
 <g>
  <title>Layer 1</title>
  <path fill="#bdb1c6" id="svg_2" d="m61.7578,67.7578l-7.7578,7.7578l0,-21.5156a6,6 0 0 0 -12,0l0,21.5156l-7.7578,-7.7578a5.9994,5.9994 0 0 0 -8.4844,8.4844l18,18a5.9979,5.9979 0 0 0 8.4844,0l18,-18a5.9994,5.9994 0 0 0 -8.4844,-8.4844z"/>
  <path fill="#bdb1c6" id="svg_3" d="m78,24l-0.6035,0a29.9916,29.9916 0 0 0 -56.8765,-6a21.0358,21.0358 0 0 0 -20.52,21a20.7039,20.7039 0 0 0 16.7637,20.2617a6,6 0 0 0 2.4726,-11.7417a8.7977,8.7977 0 0 1 -7.2363,-8.52a9.0136,9.0136 0 0 1 9,-9a18.9753,18.9753 0 0 1 2.1328,0.5391a5.9794,5.9794 0 0 0 4.6231,-0.6914a6.0438,6.0438 0 0 0 2.7187,-3.8086a17.9815,17.9815 0 0 1 35.5254,3.9609a5.9966,5.9966 0 0 0 6,6l6,0a6,6 0 0 1 0,12a6,6 0 0 0 0,12a18,18 0 0 0 0,-36z"/>
 </g>
</svg>